<svg id="Layer_1" data-name="Layer 1" xmlns="http://www.w3.org/2000/svg" xmlns:xlink="http://www.w3.org/1999/xlink" viewBox="0 0 440.42 440.42"><defs><style>.cls-1{fill:#333;}.cls-2{fill:#141414;}.cls-3{fill:url(#linear-gradient);}.cls-4{fill:#fff;}</style><linearGradient id="linear-gradient" x1="190.93" y1="472.36" x2="481.23" y2="472.36" gradientUnits="userSpaceOnUse"><stop offset="0" stop-color="#0dd7ed"/><stop offset="1" stop-color="#2c41b6"/></linearGradient></defs><rect class="cls-1" width="440.42" height="440.42" rx="220.21"/><rect class="cls-2" x="50.04" y="50.04" width="340.34" height="340.34" rx="99.74"/><rect class="cls-1" x="75.06" y="75.06" width="133.79" height="133.79" rx="66.9"/><rect class="cls-1" x="231.57" y="75.06" width="133.79" height="133.79" rx="66.9"/><path class="cls-3" d="M324.72,405.46H257.83a66.9,66.9,0,0,0-66.9,66.9h0a66.9,66.9,0,0,0,66.9,66.89H414.34a66.89,66.89,0,0,0,66.89-66.89h0a66.9,66.9,0,0,0-66.89-66.9Z" transform="translate(-115.87 -173.9)"/><path class="cls-4" d="M380.71,279.5a17.73,17.73,0,0,1,23.85,0q4.67,4.59,4.66,12.32t-4.66,12.44a17.76,17.76,0,0,1-23.85,0q-4.66-4.59-4.66-12.44T380.71,279.5Zm5.85,4.43q-2.22,2.67-2.22,7.89t2.22,8a7.41,7.41,0,0,0,6.08,2.72,7.49,7.49,0,0,0,6.13-2.78q2.26-2.79,2.27-7.9t-2.27-7.89a7.64,7.64,0,0,0-6.13-2.67A7.46,7.46,0,0,0,386.56,283.93Zm55.84-7.79-46,79.31H386.16l46-79.31Zm-18.18,51.19a16.25,16.25,0,0,1,11.93-4.61A16.07,16.07,0,0,1,448,327.33q4.61,4.59,4.6,12.44T448,352.15a16,16,0,0,1-11.87,4.66,16.28,16.28,0,0,1-11.93-4.6q-4.67-4.6-4.66-12.44T424.22,327.33Zm5.68,4.54c-1.52,1.78-2.27,4.41-2.27,7.9s.75,6,2.27,7.78a8.38,8.38,0,0,0,12.27,0q2.26-2.67,2.27-7.78t-2.27-7.9a8.38,8.38,0,0,0-12.27,0Z" transform="translate(-115.87 -173.9)"/><path class="cls-4" d="M365.62,451.14v8.75H306.54v-8.75Zm0,24.43v8.74H306.54v-8.74Z" transform="translate(-115.87 -173.9)"/><path class="cls-4" d="M239.93,279.61q7.27-5.91,18.86-5.91a29.87,29.87,0,0,1,13.35,2.78,20.09,20.09,0,0,1,8.52,7.56,20.39,20.39,0,0,1,2.9,10.79,19,19,0,0,1-4,12.16A18.09,18.09,0,0,1,269,313.58v.57a21,21,0,0,1,11.7,7.15q4.32,5.35,4.32,14a23,23,0,0,1-3,11.64,20.34,20.34,0,0,1-8.86,8.13A31.45,31.45,0,0,1,259,358q-12,0-19.77-6.3t-8.63-17.9h10a17.17,17.17,0,0,0,5.57,11.14q4.77,4.32,12.73,4.31t12.1-4.14a14.56,14.56,0,0,0,4.14-10.74q0-8.52-5.68-12.27t-17.15-3.75H249.7v-8.63h2.73q10.45-.12,15.79-3.47t5.34-10.39a12.51,12.51,0,0,0-3.92-9.66q-3.92-3.63-11.19-3.64-7,0-11.36,3.64A14.71,14.71,0,0,0,242,296H231.87Q232.67,285.52,239.93,279.61Z" transform="translate(-115.87 -173.9)"/></svg>