<svg id="Layer_1" data-name="Layer 1" xmlns="http://www.w3.org/2000/svg" viewBox="0 0 429.87 429.87"><defs><style>.cls-1{fill:#354d6d;}.cls-2{fill:#e2c593;}</style></defs><circle class="cls-1" cx="214.94" cy="214.94" r="214.94"/><path class="cls-2" d="M247.73,582.68l.17.23a142.24,142.24,0,0,0-11.4-9.69,117.26,117.26,0,0,1,11.24,12.54,112.05,112.05,0,0,1,11.31-12.64A141.55,141.55,0,0,0,247.73,582.68ZM384,411.63c-6-.14-6.12.47-11.74,1.22a149.24,149.24,0,0,0-16.57,3.76c-.68.2-1.39.44-2,.63V371.1c6.86-7.86,17.8-28,16.73-53.06-.76-18.55-8.59-46.16-41.6-72.26C278.43,206,253.29,180.86,253,180.58l-4.18-4.18L245,180.77c-.24.27-24,26.9-75.38,64.83-28.15,20.76-43.2,44.31-44.59,70-1.54,26.72,12.37,47.59,19.67,55.51v47c-1.66-.52-3.3-1.06-5-1.55a146,146,0,0,0-16.5-3.67c-5.58-.75-5.79-1.39-11.74-1.22l-8.06.14,22.29,101.64,1.31,6,6.57.87c11.14,1.76,17.33,4.06,28.4,8.37a35.53,35.53,0,0,1,4.09,1.57l4.06,1.71c2.69,1.15,5.39,2.23,8,3.57l7.85,3.83,7.59,4.18a281,281,0,0,1,28.18,18.66c4.72,3.56,9.85,7.26,14.73,11.08-4.06-4-8.36-8-12.32-11.79a242.43,242.43,0,0,0-27.76-22.56A201.2,201.2,0,0,0,163.1,520l-9.1-3.78c-3.08-1.26-6.23-2.11-9.36-3.16l-4.7-1.54c-1.59-.47-3.19-.76-4.79-1.14l-4.49-.78-16.14-83.92s38.71-.81,94.4,33.12c0,0-17.24-17.09-38.43-28.77a144.39,144.39,0,0,0-16.14-7.42V366.32l-1.77-1.66c-5.18-4.83-19.61-24.27-18.21-49.34,1.29-22.59,15-43.7,40.8-62.71,41.67-30.74,65.5-53.94,74.27-63.13,9.22,8.77,33.77,31.43,73.74,63,24.23,19.17,37,41.07,38,65.08,1,23.69-10.07,42.26-15.32,47.1l-1.77,1.66v55.15A145.51,145.51,0,0,0,324.93,430,230.21,230.21,0,0,0,286,457.89c53-34.42,94.89-32.26,94.89-32.26l-16,84-4.49.78c-1.6.37-3.21.66-4.79,1.14l-4.76,1.53c-3.13,1.06-6.28,1.91-9.36,3.16l-9.1,3.78A201.25,201.25,0,0,0,299,538.9a242.84,242.84,0,0,0-27.76,22.53c-4,3.83-8.22,7.71-12.23,11.65,4.83-3.75,9.89-7.39,14.61-10.94a278.9,278.9,0,0,1,28.2-18.71l7.59-4.18,7.85-3.84c2.62-1.39,5.32-2.42,8-3.56l4.05-1.72a37.63,37.63,0,0,1,4.1-1.57c11.07-4.27,17.2-6.57,28.4-8.36l6.56-.88,1.31-6L392,411.71Z" transform="translate(-32.79 -166.14)"/><path class="cls-1" d="M380.9,425.6l-16,84-4.49.78c-1.6.37-3.21.67-4.79,1.14L350.82,513c-3.13,1.06-6.28,1.91-9.36,3.17l-9.1,3.77A202,202,0,0,0,299,538.87a243.3,243.3,0,0,0-27.76,22.56c-4,3.83-8.22,7.71-12.23,11.65a142,142,0,0,0-11.32,9.6l.17.23a142.24,142.24,0,0,0-11.4-9.69c-4.06-4-8.36-8-12.32-11.79a242.43,242.43,0,0,0-27.76-22.56A202,202,0,0,0,163.1,520L154,516.2c-3.08-1.26-6.23-2.11-9.36-3.17l-4.7-1.53c-1.59-.47-3.19-.77-4.79-1.14l-4.49-.78-16.14-83.95s38.71-.81,94.4,33.12c0,0-17.24-17.09-38.43-28.77a144.39,144.39,0,0,0-16.14-7.42V366.32l-1.77-1.66c-5.18-4.83-19.61-24.27-18.21-49.34,1.29-22.59,15-43.7,40.8-62.71,41.67-30.74,65.5-53.94,74.27-63.13,9.22,8.77,33.77,31.43,73.74,63,24.23,19.17,37,41.07,38,65.08,1,23.69-10.07,42.26-15.32,47.1l-1.77,1.66v55.15A145.51,145.51,0,0,0,324.93,430,230.21,230.21,0,0,0,286,457.89C339,423.44,380.9,425.6,380.9,425.6Z" transform="translate(-32.79 -166.14)"/><path class="cls-2" d="M334.06,492.33A126.75,126.75,0,0,0,310,503.56c-7.45,4.74-21.43,18.55-21.43,18.55l.85-.7a203.75,203.75,0,0,1,21.79-15.33,143.48,143.48,0,0,1,23.53-11.66,96,96,0,0,1,12.54-3.73c4.18-1.31,8.58-1.47,12.93-2.24A82.26,82.26,0,0,0,334.06,492.33Z" transform="translate(-32.79 -166.14)"/><path class="cls-2" d="M334.06,474.22A128,128,0,0,0,310,485.46C302.5,490.21,288.52,504,288.52,504c.29-.23.57-.48.85-.7A202.33,202.33,0,0,1,311.16,488a143.48,143.48,0,0,1,23.53-11.66,94.47,94.47,0,0,1,12.54-3.72c4.18-1.31,8.58-1.48,12.93-2.25A82.81,82.81,0,0,0,334.06,474.22Z" transform="translate(-32.79 -166.14)"/><path class="cls-2" d="M334.06,456.14A127.94,127.94,0,0,0,310,467.37c-7.45,4.75-21.43,18.56-21.43,18.56.29-.22.57-.47.85-.7a202.94,202.94,0,0,1,21.79-15.4,144.28,144.28,0,0,1,23.53-11.66,96.07,96.07,0,0,1,12.54-3.74c4.18-1.29,8.58-1.47,12.93-2.22A82.26,82.26,0,0,0,334.06,456.14Z" transform="translate(-32.79 -166.14)"/><path class="cls-2" d="M161.19,492.33a127.36,127.36,0,0,1,24.11,11.23c7.46,4.74,21.42,18.55,21.42,18.55l-.85-.7a204.64,204.64,0,0,0-21.78-15.33,144,144,0,0,0-23.54-11.66A96,96,0,0,0,148,490.69c-4.18-1.31-8.59-1.47-12.92-2.24A82.22,82.22,0,0,1,161.19,492.33Z" transform="translate(-32.79 -166.14)"/><path class="cls-2" d="M161.19,474.22a127.4,127.4,0,0,1,24.11,11.24c7.46,4.75,21.42,18.56,21.42,18.56-.29-.23-.57-.48-.85-.7A203.62,203.62,0,0,0,184.09,488a144.78,144.78,0,0,0-23.54-11.66A94.47,94.47,0,0,0,148,472.61c-4.18-1.31-8.59-1.48-12.92-2.25A82.81,82.81,0,0,1,161.19,474.22Z" transform="translate(-32.79 -166.14)"/><path class="cls-2" d="M161.19,456.14a127.36,127.36,0,0,1,24.11,11.23c7.46,4.75,21.42,18.56,21.42,18.56-.29-.22-.57-.47-.85-.7a204.24,204.24,0,0,0-21.78-15.4,144.38,144.38,0,0,0-23.54-11.66A96.07,96.07,0,0,0,148,454.43c-4.18-1.29-8.59-1.47-12.92-2.22A82.22,82.22,0,0,1,161.19,456.14Z" transform="translate(-32.79 -166.14)"/><path class="cls-2" d="M217.14,433.34v.12h0a14.47,14.47,0,0,0,14.47,14.47H264a14.47,14.47,0,0,0,14.46-14.47h0v-.12l.11.12a24.21,24.21,0,0,0-10.67-20.68c-14.23-9.63-20-17.24-20-17.24s-5.81,7.61-20,17.24a24.23,24.23,0,0,0-10.69,20.68Z" transform="translate(-32.79 -166.14)"/><path class="cls-2" d="M276,483.53V454.85H219.47v28.68a13.17,13.17,0,0,0-5.84,11v62.4c25.61,16.93,34.11,28.82,34.11,28.82a216.89,216.89,0,0,1,34.12-28.36V494.5A13.23,13.23,0,0,0,276,483.53ZM259.39,554h-23.3V517a11.65,11.65,0,0,1,11.65-11.65h0A11.64,11.64,0,0,1,259.39,517h0Z" transform="translate(-32.79 -166.14)"/><path class="cls-2" d="M247.74,395.53a19,19,0,0,1,0-37.93,14.82,14.82,0,1,0,20.41,19.73V378a19,19,0,0,1-20.39,17.54Z" transform="translate(-32.79 -166.14)"/><polygon class="cls-2" points="219.64 208.96 224.95 205.08 230.26 208.96 228.22 202.71 233.55 198.87 226.97 198.88 224.95 192.63 222.93 198.88 216.36 198.87 221.69 202.71 219.64 208.96"/><path class="cls-2" d="M276.35,459.28H218.74a7.1,7.1,0,0,1-7.1-7.1h0a7.1,7.1,0,0,1,7.09-7.12h57.62a7.11,7.11,0,0,1,7.12,7.12h0a7.1,7.1,0,0,1-7.1,7.1h0Z" transform="translate(-32.79 -166.14)"/><path class="cls-2" d="M195.85,303.45H184.37v-1.11a3.67,3.67,0,0,0,2.5-.73,3.47,3.47,0,0,0,.7-2.5,5.21,5.21,0,0,0,0-.79l-1.81-18.56a121.64,121.64,0,0,0-5.7,11.14l-5.85,13.7h-1.06l-10.91-27.23-.78,8.36q-.56,5.68-.55,9c0,4.93,1.23,7.45,3.7,7.58v1.13H154.06v-1.09a5,5,0,0,0,3.22-3.4,34.67,34.67,0,0,0,1.39-4.8,71,71,0,0,0,1.39-9.38l.59-6.22v-1a2.76,2.76,0,0,0-.73-2.24,3.88,3.88,0,0,0-2.35-.59v-1.11h7.64l10,24.69L181,284.77c2.16-5.13,3.6-8.85,4.28-11.15h8.36v1.12a5.12,5.12,0,0,0-2.66.56,2.8,2.8,0,0,0-1,2.42v.54l1.77,18.61a12.06,12.06,0,0,0,.79,3.93,3.65,3.65,0,0,0,3.36,1.53Z" transform="translate(-32.79 -166.14)"/><path class="cls-2" d="M228.08,274.71q-4.4.63-4.4,14.56v5.58a10.83,10.83,0,0,1-1.58,5.21c-1.79,2.7-5.06,4.05-9.75,4.05-4.92,0-8.36-1.39-10.19-4.18a8.54,8.54,0,0,1-1.39-5V278.42a4.3,4.3,0,0,0-.73-2.89,4,4,0,0,0-2.78-.82V273.6h11.41v1.11a4.06,4.06,0,0,0-2.79.82,4.24,4.24,0,0,0-.74,2.89v16.43a7.24,7.24,0,0,0,3.42,6.6,8.83,8.83,0,0,0,4.83,1.24q6,0,7.79-4.18a16.68,16.68,0,0,0,.9-6.27,94.59,94.59,0,0,0-.34-9.67c-.6-5-1.92-7.61-4-7.79v-1.11h10.31Z" transform="translate(-32.79 -166.14)"/><path class="cls-2" d="M289.77,304.28H278.36v-1.07a3.9,3.9,0,0,0,2.79-.82,4.24,4.24,0,0,0,.74-2.89V288.7H267.67v10.76a3.26,3.26,0,0,0,2.74,3.69h0a2.75,2.75,0,0,0,.81,0v1.12H259.84v-1.06a3.9,3.9,0,0,0,2.79-.82,4.24,4.24,0,0,0,.74-2.89V279.24a4.17,4.17,0,0,0-.74-2.87,4,4,0,0,0-2.79-.81v-1.09h11.41v1.13a4,4,0,0,0-2.78.81,4.14,4.14,0,0,0-.73,2.87v8H282v-8a4.19,4.19,0,0,0-.72-2.87,4,4,0,0,0-2.79-.81v-1.13h11.41v1.13a4,4,0,0,0-2.79.81,4.19,4.19,0,0,0-.73,2.87V299.5a4.33,4.33,0,0,0,.73,2.9,3.8,3.8,0,0,0,2.79.81Z" transform="translate(-32.79 -166.14)"/><path class="cls-2" d="M320.05,304.28h-8.36v-1.07h.53c.27,0,.41-.25.41-.77a2.19,2.19,0,0,0-.1-.51l-2.79-8.13h-10.2a22.8,22.8,0,0,0-1.61,6.75,2.51,2.51,0,0,0,.78,1.93,2.78,2.78,0,0,0,2,.73h1.26v1.11H291.47v-1.11q2.65-.13,4.77-5.58l9.53-24.4h1.39l8.27,23.86a20.62,20.62,0,0,0,1.6,3.78,4,4,0,0,0,3,2.34ZM309.2,292.34,305,279.92,300,292.34Z" transform="translate(-32.79 -166.14)"/><path class="cls-2" d="M341,282.31h-1.67a6.15,6.15,0,0,0-2.22-5.33,9.72,9.72,0,0,0-5.81-1.39h-1.73c-.17,1.68-.26,3.22-.26,4.57a10.64,10.64,0,0,0,1.39,6.09c1.06,1.49,2.91,2.24,5.57,2.24h1.94v1.61l-8.58.19v9.2a3.26,3.26,0,0,0,2.76,3.69,3.39,3.39,0,0,0,.78,0v1.12H321.71v-1.1a3.9,3.9,0,0,0,2.79-.82,4.25,4.25,0,0,0,.74-2.89V279.24a4.17,4.17,0,0,0-.74-2.87,4,4,0,0,0-2.79-.81v-1.09h17.58c.36,0,.58-.33.65-1h1Z" transform="translate(-32.79 -166.14)"/><path class="cls-2" d="M213.23,329.81H154.7c3.45-1.59,4-3.36,5-7.32.59,1.64,1.4,2.44,2.46,2.44h43.74v-3.61h-8.63c-.54-7,.7-12.34,8.63-13.47a6.11,6.11,0,0,0,4.92-2.44v19.51h2.41ZM189.94,315c.39,3.83-6.1,3.89-5.7,0C183.84,311.21,190.33,311.25,189.94,315Zm16,1.4v-3.68c-2.71.43-4,.87-4,3.68Z" transform="translate(-32.79 -166.14)"/><path class="cls-2" d="M264,329.81h-55.3v-4.88h36.76q-6.28-5.56-6.3-16.12a20.28,20.28,0,0,1,2.62-9.5q2.43-3.94,4.88-7.86a16.19,16.19,0,0,0,2.61-8q0-7.45-5.19-7.46a7.86,7.86,0,0,0-5.71,1.74,10.79,10.79,0,0,0-2.41,5.58,17.1,17.1,0,0,1-.1-2.15,9.92,9.92,0,0,1,1.84-6.16,34.34,34.34,0,0,1-7.57-3.84,56.8,56.8,0,0,0,5.83.33c1,0,2.45,0,4.43-.18a43.68,43.68,0,0,1,4.44-.15,8.35,8.35,0,0,1,7.07,3.41,12.31,12.31,0,0,1,2.3,7.62,20.25,20.25,0,0,1-2.61,9q-2.4,4.47-4.85,8.93a23.67,23.67,0,0,0-2.6,10.27c0,4.76,1.59,8.36,4.79,10.88s9.85,3.74,13.2,3.74H264Z" transform="translate(-32.79 -166.14)"/><path class="cls-2" d="M324.35,329.81h-68v-4.88H282v-8.57a2.31,2.31,0,0,0-.81-1.67,2.54,2.54,0,0,0-1.77-.72,13.86,13.86,0,0,0,4.78-2.79,6.41,6.41,0,0,0,2.65-4.59v9.76h22a9.45,9.45,0,0,1,1.68-5.57,5.92,5.92,0,0,1,5-2.44,6.63,6.63,0,0,1,4.82,1.92,6.51,6.51,0,0,1,1.93,4.81v9.86h2Zm-6.86-4.88v-9.75a1.74,1.74,0,0,0-.58-1.3,2,2,0,0,0-1.4-.54,1.56,1.56,0,0,0-1.76,1.33s0,0,0,.06a1.14,1.14,0,0,0,0,.45v6.14H286.89V325Z" transform="translate(-32.79 -166.14)"/><path class="cls-2" d="M341.47,329.81h-20v-4.88h6c0-3.37,1-5.81,3-7.33a13.35,13.35,0,0,1,5.92-2.07c2.45-.35,3.82-.71,4.11-1.06a13.16,13.16,0,0,0,.94-1.4Zm-4.9-4.88v-4.47c-2.79,0-4.18,1.51-4.18,4.49Z" transform="translate(-32.79 -166.14)"/></svg>