<svg id="Layer_1" data-name="Layer 1" xmlns="http://www.w3.org/2000/svg" viewBox="0 0 953.4 175.9"><defs><style>.cls-1{fill:#fff;}</style></defs><g id="path95391"><polygon class="cls-1" points="95.3 2.01 65.37 2.01 0 174.57 36.77 174.57 80.28 54.95 124.17 174.57 160.94 174.57 95.3 2.01"/><polygon class="cls-1" points="80.59 174.57 53.12 132.05 107.82 132.05 80.59 174.57"/></g><g id="path95393"><path class="cls-1" d="M142.14,352.54c-10.44-10.77-25.69-16.24-45.33-16.24H34.2V508.87H68.93V369.26H94.82c8.56,0,15.42,2,19.8,5.91s6.52,9.56,6.52,17.1c0,7.3-2.12,13-6.3,16.84-4.91,4.53-12.68,6.83-23.12,6.83H85.89v33h7.62a89,89,0,0,0,24.62-3.2,56.43,56.43,0,0,0,20.22-10.33,47.29,47.29,0,0,0,13.54-18,61.86,61.86,0,0,0,4.62-24.7C156.51,376.17,151.56,362.27,142.14,352.54Z" transform="translate(166.95 -334.29)"/></g><g id="path95395"><path class="cls-1" d="M196.74,347.36l34.73-11.06V475.87H309.1v33H196.74Z" transform="translate(166.95 -334.29)"/></g><g id="path95397"><path class="cls-1" d="M349.31,347.36,384,336.3V508.87H349.31Z" transform="translate(166.95 -334.29)"/></g><g id="path95399"><path class="cls-1" d="M478,503.26A87.94,87.94,0,1,1,585.3,373.34l-28.84,19.33a53.2,53.2,0,1,0-.11,59.31l28.79,19.44A88,88,0,0,1,478,503.26Z" transform="translate(166.95 -334.29)"/></g><g id="path95401"><polygon class="cls-1" points="887.77 2.02 857.84 2.02 792.46 174.58 829.23 174.58 872.75 54.96 916.64 174.58 953.4 174.58 887.77 2.02"/><polygon class="cls-1" points="873.05 174.58 845.59 132.06 900.28 132.06 873.05 174.58"/></g></svg>