<svg id="Layer_1" data-name="Layer 1" xmlns="http://www.w3.org/2000/svg" xmlns:xlink="http://www.w3.org/1999/xlink" viewBox="0 0 530.09 530.09"><defs><style>.cls-1{fill:#232323;}.cls-2{fill:#1e1e1e;}.cls-3{fill:#ff2079;}.cls-4{fill:#fff;}.cls-5{fill:#440bd4;}.cls-6{fill:url(#linear-gradient);}</style><linearGradient id="linear-gradient" x1="156.11" y1="377.59" x2="319.07" y2="377.59" gradientTransform="translate(336.59 -57.41) rotate(45)" gradientUnits="userSpaceOnUse"><stop offset="0" stop-color="#440bd4"/><stop offset="1" stop-color="#ff2079"/></linearGradient></defs><path class="cls-1" d="M149.32,201h0c146.38,0,265,118.67,265,265h0c0,146.38-118.66,265-265,265h0c-146.38,0-265-118.66-265-265h0C-115.73,319.63,2.94,201,149.32,201Z" transform="translate(115.73 -200.96)"/><rect class="cls-2" x="61.67" y="61.67" width="406.76" height="406.76" rx="125.91"/><path class="cls-3" d="M237.91,474.8h0a80.46,80.46,0,0,1,80.38,80.55h0a80.46,80.46,0,0,1-80.38,80.55h0a80.46,80.46,0,0,1-80.38-80.55h0a80.46,80.46,0,0,1,80.38-80.55Z" transform="translate(115.73 -200.96)"/><path class="cls-4" d="M213.38,597.63a8.86,8.86,0,0,1-9-8.67v-69.8h-5.58v-5.62h22.37v-4.3h33.52v4.3H277v5.62h-5.6v69.41a8.82,8.82,0,0,1-8.58,9.06H213.38Zm12.27-16.82h5.6V530.36h-5.6Zm18.93,0h5.6V530.36h-5.6Z" transform="translate(115.73 -200.96)"/><path class="cls-5" d="M60,474.8h0a80.46,80.46,0,0,1,80.37,80.53v0h0A80.46,80.46,0,0,1,60,635.9h0a80.46,80.46,0,0,1-80.38-80.55h0A80.46,80.46,0,0,1,60,474.8Z" transform="translate(115.73 -200.96)"/><path class="cls-4" d="M15.88,597.63V583.75l72.66-72.9a6.27,6.27,0,0,1,1.87-1.17,5.76,5.76,0,0,1,2.13-.41,6.65,6.65,0,0,1,2.16.35,4.94,4.94,0,0,1,1.93,1.26l5.88,5.93a4.92,4.92,0,0,1,1.25,1.93,7.56,7.56,0,0,1,.33,2.11,6.32,6.32,0,0,1-.38,2.15,5.22,5.22,0,0,1-1.2,1.87L29.77,597.66Zm74.45-68.57,8.31-8.16-6.13-6.15-8.15,8.31Z" transform="translate(115.73 -200.96)"/><path class="cls-4" d="M60.15,458.28a78.45,78.45,0,0,1-31.4-6.34,80.48,80.48,0,0,1-42.81-42.87,81.39,81.39,0,0,1,0-62.94,80.56,80.56,0,0,1,148.43,0,81.42,81.42,0,0,1,0,62.95,80.46,80.46,0,0,1-42.81,42.84A78,78,0,0,1,60.15,458.28Zm0-9A71.74,71.74,0,1,0,9,428.14a72,72,0,0,0,51.14,21.18Zm0,0a71.74,71.74,0,1,1,51.11-21.18,72,72,0,0,1-51.11,21.18Z" transform="translate(115.73 -200.96)"/><rect class="cls-6" x="167.67" y="307.67" width="139.84" height="139.84" rx="42.02" transform="translate(-81.68 77.63) rotate(-45)"/><path class="cls-4" d="M234.73,380.48H203.29v-5.73h31.44V343.2h5.72v31.51h31.44v5.77H240.45V412h-5.72Z" transform="translate(115.73 -200.96)"/></svg>